<?xml version="1.0" encoding="UTF-8" standalone="no"?>
<!-- Created with Inkscape (http://www.inkscape.org/) -->

<svg
   xmlns:dc="http://purl.org/dc/elements/1.1/"
   xmlns:cc="http://creativecommons.org/ns#"
   xmlns:rdf="http://www.w3.org/1999/02/22-rdf-syntax-ns#"
   xmlns:svg="http://www.w3.org/2000/svg"
   xmlns="http://www.w3.org/2000/svg"
   xmlns:sodipodi="http://sodipodi.sourceforge.net/DTD/sodipodi-0.dtd"
   xmlns:inkscape="http://www.inkscape.org/namespaces/inkscape"
   width="150"
   height="150"
   viewBox="0 0 150 150"
   id="svg2"
   version="1.1"
   inkscape:version="0.91 r13725"
   sodipodi:docname="bu.svg">
  <defs
     id="defs4" />
  <sodipodi:namedview
     id="base"
     pagecolor="#ffffff"
     bordercolor="#666666"
     borderopacity="1.0"
     inkscape:pageopacity="0.0"
     inkscape:pageshadow="2"
     inkscape:zoom="0.7"
     inkscape:cx="-46.428571"
     inkscape:cy="82.857143"
     inkscape:document-units="px"
     inkscape:current-layer="layer1"
     showgrid="true"
     units="px"
     inkscape:window-width="1920"
     inkscape:window-height="1138"
     inkscape:window-x="-8"
     inkscape:window-y="-8"
     inkscape:window-maximized="1">
    <inkscape:grid
       type="xygrid"
       id="grid4136" />
  </sodipodi:namedview>
  <metadata
     id="metadata7">
    <rdf:RDF>
      <cc:Work
         rdf:about="">
        <dc:format>image/svg+xml</dc:format>
        <dc:type
           rdf:resource="http://purl.org/dc/dcmitype/StillImage" />
        <dc:title></dc:title>
      </cc:Work>
    </rdf:RDF>
  </metadata>
  <g
     inkscape:label="Layer 1"
     inkscape:groupmode="layer"
     id="layer1"
     transform="translate(0,-902.36216)">
    <path
       style="fill:#000000;fill-opacity:1;fill-rule:nonzero"
       id="path4220"
       d="m 38.909552,950.2193 c 1.515167,0 3.030334,0 4.545501,0 2.031424,0 4.062848,0 6.094271,0 2.301864,0 4.603729,0 6.905593,0 2.482531,0 4.965062,0 7.447592,0 2.604388,0 5.208775,0 7.813163,0 2.686605,0 5.37321,0 8.059815,0 1.823146,0 3.646292,0 5.469438,0 0,0 0,4.28572 0,4.28572 l 0,0 c -1.823146,0 -3.646292,0 -5.469438,0 -2.686605,0 -5.37321,0 -8.059815,0 -2.604388,0 -5.208775,0 -7.813163,0 -2.48253,0 -4.965061,0 -7.447592,0 -2.301864,0 -4.603729,0 -6.905593,0 -2.031423,0 -4.062847,0 -6.094271,0 -1.515167,0 -3.030334,0 -4.545501,0 0,0 0,-4.28572 0,-4.28572 z"
       inkscape:connector-curvature="0" />
    <path
       style="fill:#000000;fill-opacity:1;fill-rule:nonzero"
       id="path4222"
       d="m 66.128514,955.56662 c -0.657906,1.89165 -1.449906,3.6962 -2.250186,5.49523 -1.07952,2.45459 -2.471462,4.65472 -3.85925,6.83641 -1.720139,2.57437 -3.460599,5.13262 -5.270255,7.60784 -1.950536,2.52542 -3.94171,4.9942 -6.03332,7.33216 -2.273402,2.47511 -4.774135,4.58898 -7.297069,6.63035 -2.676927,2.13573 -5.544239,3.84236 -8.403611,5.54255 0,0 -1.984602,-5.33965 -1.984602,-5.33965 l 0,0 c 2.677595,-1.59099 5.365671,-3.18129 7.875418,-5.1741 2.321436,-1.87469 4.62441,-3.8139 6.720941,-6.08087 1.97562,-2.20597 3.853058,-4.53895 5.698431,-6.91838 1.738983,-2.37267 3.40504,-4.83273 5.059487,-7.29915 1.22734,-1.92751 2.469619,-3.86325 3.42763,-6.03005 0.718357,-1.61469 1.436023,-3.22936 2.02811,-4.92648 0,0 4.288276,2.32414 4.288276,2.32414 z"
       inkscape:connector-curvature="0" />
    <path
       style="fill:#000000;fill-opacity:1;fill-rule:nonzero"
       id="path4228"
       d="m 63.571429,964.12886 c 0,1.51517 0,3.03033 0,4.5455 0,2.03143 0,4.06285 0,6.09427 0,2.30187 0,4.60373 0,6.90559 0,2.48254 0,4.96507 0,7.4476 0,2.60439 0,5.2088 0,7.81317 0,2.6866 0,5.37321 0,8.05981 0,1.3654 0,2.7308 0,4.0962 0,0 -4.285715,0 -4.285715,0 l 0,0 c 0,-1.3654 0,-2.7308 0,-4.0962 0,-2.6866 0,-5.37321 0,-8.05981 0,-2.60437 0,-5.20878 0,-7.81317 0,-2.48253 0,-4.96506 0,-7.4476 0,-2.30186 0,-4.60372 0,-6.90559 0,-2.03142 0,-4.06284 0,-6.09427 0,-1.51517 0,-3.03033 0,-4.5455 0,0 4.285715,0 4.285715,0 z"
       inkscape:connector-curvature="0" />
    <path
       style="fill:#000000;fill-opacity:1;fill-rule:nonzero"
       id="path4230"
       d="m 67.810679,963.24248 c 0.496262,1.14043 1.332236,2.06243 2.124819,3.00043 1.227895,1.45379 2.529023,2.84975 3.896133,4.17325 1.603335,1.599 3.302429,3.0972 5.024998,4.5654 1.24637,1.00594 0.61246,0.49792 1.90206,1.52365 0,0 -2.667981,3.35399 -2.667981,3.35399 l 0,0 c -1.344671,-1.06975 -0.673212,-0.53107 -2.014325,-1.61612 -1.793944,-1.52942 -3.562682,-3.09087 -5.233526,-4.75535 -1.460658,-1.42726 -2.867307,-2.91421 -4.180919,-4.47875 -1.066975,-1.26273 -2.139236,-2.53844 -2.790452,-4.07827 0,0 3.939193,-1.68823 3.939193,-1.68823 z"
       inkscape:connector-curvature="0" />
  </g>
</svg>
