<svg class="squiggle-animated"
     xmlns:dc="http://purl.org/dc/elements/1.1/"
     xmlns:cc="http://creativecommons.org/ns#"
     xmlns:rdf="http://www.w3.org/1999/02/22-rdf-syntax-ns#"
     xmlns:svg="http://www.w3.org/2000/svg"
     xmlns="http://www.w3.org/2000/svg"
     xmlns:sodipodi="http://sodipodi.sourceforge.net/DTD/sodipodi-0.dtd"
     xmlns:inkscape="http://www.inkscape.org/namespaces/inkscape"
     width="150px"
     height="150px"
     id="svg2"
     version="1.1"
     inkscape:version="0.48.2 r9819"
     sodipodi:docname="chars.svg"
     style="border-style:solid;border-width:2px">
  <g
     id="layer1"
     transform="translate(0,-902.36216)">
    <g
       id="g4148">
      <path
         id="path4144"
         d="m 2.0203051,979.63118 149.5025749,-2.02031 0,0"
         style="fill:none;fill-rule:evenodd;stroke:#ff0000;stroke-width:2;stroke-linecap:butt;stroke-linejoin:miter;stroke-opacity:1;stroke-miterlimit:4;stroke-dasharray:12,12;stroke-dashoffset:0" />
      <path
         id="path4146"
         d="m 76.771593,902.85958 -2.020305,153.54322 10.101525,-2.0203"
         style="fill:none;fill-rule:evenodd;stroke:#ff0000;stroke-width:2;stroke-linecap:butt;stroke-linejoin:miter;stroke-miterlimit:4;stroke-dasharray:8,8;stroke-dashoffset:0;stroke-opacity:1"
         />
    </g>
  </g>
  <g id="layerCharacter">
    <path
       style="opacity:1;stroke:#000000;stroke-width:2;stroke-miterlimit:4;stroke-dasharray:none;stroke-dashoffset:0;stroke-opacity:1"
       id="path4137"
       d="m 65.320916,26.129444 c -0.276965,1.145895 -0.01297,2.036824 0.119079,3.558639 -0.619043,2.003097 -0.02386,5.246461 -0.242159,7.538641 -0.848783,2.210093 -0.158777,6.194079 -0.802439,7.743959 -0.318747,3.278061 -0.929118,6.304716 -1.478182,9.430606 -0.457348,3.544209 -1.728864,6.537782 -2.206777,9.658376 -0.991916,2.964959 -1.688814,5.439182 -2.785214,8.423972 -0.821906,3.509256 -2.838391,7.30135 -3.523405,10.201154 -1.547667,2.554828 -2.499713,5.874446 -3.82199,8.561903 -0.990031,2.13154 -3.118299,6.180486 -3.412845,7.057344 -1.668995,2.666422 -2.113433,3.787592 -3.976674,6.548892 -2.053289,3.83423 -4.290383,6.85102 -6.671065,10.60064 -2.131086,2.77237 -3.942118,4.86 -5.995978,7.29113 -2.629186,1.95487 -4.485759,4.88608 -7.333264,6.78151 -2.042422,1.05167 -3.617778,4.34812 -6.018858,3.88907 3.233814,-2.9477 6.732468,-4.67711 9.408692,-8.32345 3.210549,-2.39379 5.384311,-5.38024 7.72761,-8.77085 2.782148,-2.55058 3.883973,-6.14615 6.765606,-9.01625 1.878886,-4.20315 4.71322,-8.347017 6.764637,-12.527813 1.241372,-2.417114 1.698304,-4.466237 3.604989,-7.134927 1.266196,-4.721371 3.997925,-8.888098 4.947982,-13.517344 1.798891,-3.751536 2.595982,-7.791903 3.557946,-11.649591 1.257326,-3.069586 1.923879,-8.199432 2.264658,-9.669682 0.66296,-3.591531 1.115575,-6.310149 1.477002,-9.417213 0.104056,-3.115301 0.264271,-6.287762 0.676519,-9.275794 0.107736,-2.753503 0.07275,-5.293756 -0.164652,-7.800753 -0.268021,-0.950858 0.737111,-0.177395 1.118782,-0.182169 z"/>
    <path
       style="opacity:1;stroke:#000000;stroke-width:2;stroke-miterlimit:4;stroke-dasharray:none;stroke-dashoffset:0;stroke-opacity:1"
       id="path4139"
       d="m 63.339005,51.339406 c -0.192413,1.109896 1.348501,3.585478 1.540678,5.336083 1.165979,2.65256 2.19775,4.960762 3.871795,7.520713 1.934644,3.059188 4.330214,5.904059 6.772498,8.646284 1.903379,2.438796 3.874595,4.239108 5.829045,6.460862 2.244215,2.475404 4.841703,4.80043 6.9874,7.162219 2.59326,2.042527 4.951214,4.388878 7.470125,6.536115 5.935694,5.367281 12.543084,10.032508 19.295814,14.232048 6.22691,3.72155 12.85307,6.6968 19.69423,9.10945 2.64981,1.08986 7.41443,3.04165 8.36547,4.26162 -4.09842,-2.18423 -8.31522,-4.25905 -12.75152,-5.71017 -8.16839,-3.01362 -15.77669,-7.33114 -22.96578,-12.18303 -2.179,-1.71388 -4.83214,-3.405023 -6.74127,-5.059409 -1.702603,-1.135033 -3.454019,-2.927062 -5.14071,-4.376968 -2.799862,-2.128686 -5.1697,-4.257748 -7.706938,-6.692151 -3.09634,-3.161897 -6.405336,-6.151702 -9.302385,-9.487504 -2.585038,-2.672822 -5.051906,-5.59807 -7.441363,-8.49506 -2.216972,-2.404575 -3.844277,-5.437043 -5.49453,-8.445923 -1.059444,-2.561758 -1.560602,-3.405427 -2.366867,-6.308003 -0.50232,-1.088979 -1.98602,-3.427929 0.08431,-2.507176 z"
       />
  </g>

</svg>