<?xml version="1.0" encoding="UTF-8" standalone="no"?>
<!-- Created with Inkscape (http://www.inkscape.org/) -->

<svg
   xmlns:dc="http://purl.org/dc/elements/1.1/"
   xmlns:cc="http://creativecommons.org/ns#"
   xmlns:rdf="http://www.w3.org/1999/02/22-rdf-syntax-ns#"
   xmlns:svg="http://www.w3.org/2000/svg"
   xmlns="http://www.w3.org/2000/svg"
   xmlns:sodipodi="http://sodipodi.sourceforge.net/DTD/sodipodi-0.dtd"
   xmlns:inkscape="http://www.inkscape.org/namespaces/inkscape"
   width="150"
   height="150"
   viewBox="0 0 150 150"
   id="svg2"
   version="1.1"
   inkscape:version="0.91 r13725"
   sodipodi:docname="cao.svg">
  <g
     id="layer1"
     transform="translate(0,-902.36216)">
    <g
       id="g4148">
      <path
         style="fill:none;fill-rule:evenodd;stroke:#ff0000;stroke-width:2;stroke-linecap:butt;stroke-linejoin:miter;stroke-miterlimit:4;stroke-dasharray:12, 12;stroke-dashoffset:0;stroke-opacity:1"
         d="M 2.0203051,979.63118 C 51.854497,978.95774 101.68869,978.28431 151.52288,977.61087"
         id="path4144" />
      <path
         style="fill:none;fill-rule:evenodd;stroke:#ff0000;stroke-width:2;stroke-linecap:butt;stroke-linejoin:miter;stroke-miterlimit:4;stroke-dasharray:8, 8;stroke-dashoffset:0;stroke-opacity:1"
         d="m 76.771593,902.85958 c -0.673435,51.18107 -1.34687,102.36212 -2.020305,153.54322 3.367181,-0.6734 6.734344,-1.3469 10.101525,-2.0203"
         id="path4146" />
    </g>
  </g>
  <g
     id="layerCharacter">
    <path
         id="path4137"
         d="m 93.160514,13.926887 c -1.266123,1.451974 -2.599488,2.654786 -3.924976,4.110359 -3.44854,2.394262 -6.702371,5.63266 -10.34969,8.062519 -3.189329,3.085367 -9.228427,6.62761 -11.728964,8.881722 -5.011717,2.950436 -9.41717,6.446035 -14.625282,9.111779 -2.154172,1.82624 -13.258657,6.53001 -5.85865,2.308374 5.202919,-2.456812 9.380589,-5.28173 14.3005,-8.385015 3.744978,-2.453518 7.404041,-5.004687 10.737082,-7.449292 2.731917,-1.746386 6.915849,-5.289323 10.598989,-7.726474 1.665505,-1.931176 2.768321,-3.054867 5.719667,-4.973288 0.766928,-1.352281 3.129364,-2.337044 3.755998,-3.982512 0.249888,-0.56022 0.73314,-0.236989 1.375326,0.04183 z"
         style="opacity:1;fill:#000000;fill-opacity:0.41176471;stroke:#000000;stroke-width:2;stroke-miterlimit:4;stroke-dasharray:none;stroke-dashoffset:0;stroke-opacity:1" />
    <path
       id="path4143"
       d="m 76.418754,28.252342 c 4.415865,0.009 10.059302,-0.750381 14.784908,-1.12507 4.432787,0.05616 15.124978,-0.73277 16.093258,0.246159 -6.60404,0.171844 -13.350577,-0.07438 -19.563151,0.75456 -4.041251,-0.336411 -7.691676,1.683612 -11.315015,0.124351 z"
       style="opacity:1;fill:#000000;fill-opacity:0.41176471;stroke:#000000;stroke-width:2.25055242;stroke-miterlimit:4;stroke-dasharray:none;stroke-dashoffset:0;stroke-opacity:1" />
    <path
       id="path4145"
       d="m 109.61833,31.220803 c -1.7924,0.993395 -2.065,1.870097 -4.5066,3.606978 -1.9089,1.604428 -5.122092,4.118317 -6.985237,5.837866 -4.345308,3.634133 -8.706118,6.55062 -13.432801,9.433071 -4.031559,2.627019 -8.979705,5.234476 -13.037,7.188895 -4.859314,2.608497 -9.410638,4.53306 -14.509535,7.022816 -4.525035,1.660959 -8.645674,3.617673 -13.3926,5.492746 -3.831206,1.526916 -11.322535,5.134085 -16.683134,6.431277 4.734786,-2.724402 11.998413,-4.817469 17.53908,-7.614052 6.000809,-2.30813 10.582368,-4.255213 15.877997,-6.747667 7.875485,-3.608458 15.558792,-7.46761 22.96649,-11.987471 3.39478,-1.886359 6.079261,-3.662039 9.119117,-6.051086 3.38372,-2.40999 5.929486,-4.30397 9.082563,-7.188262 2.23506,-1.6121 4.74573,-4.275785 6.02817,-5.225839 0.5131,-0.603429 0.61526,-0.972693 1.93349,-0.199272 z"
       style="opacity:1;fill:#000000;fill-opacity:0.41176471;stroke:#000000;stroke-width:2;stroke-miterlimit:4;stroke-dasharray:none;stroke-dashoffset:0;stroke-opacity:1" />
    <path
       id="path4149"
       d="m 68.294819,39.148694 c 0.66766,1.556544 7.910922,8.861885 7.910922,8.861885 -1.994998,-2.112694 -6.843977,-6.272294 -8.22688,-8.334672 -1.109575,-1.16437 -0.79628,-0.719367 0.315958,-0.527213 z"
       style="opacity:1;fill:#000000;fill-opacity:0.41176471;stroke:#000000;stroke-width:2;stroke-miterlimit:4;stroke-dasharray:none;stroke-dashoffset:0;stroke-opacity:1" />
    <path
       id="path4151"
       d="m 105.15329,51.243773 c -2.55524,2.473866 -5.905683,4.892477 -8.369083,6.020413 -2.26623,2.453994 -6.626341,4.312619 -10.156741,7.069296 -4.426718,2.821027 -8.519027,5.376851 -12.794145,7.819245 -5.121836,3.280989 -10.054487,6.259377 -15.705969,8.977349 -1.697697,2.492671 -12.185453,6.231811 -5.071183,2.254215 7.025512,-3.775612 13.809655,-7.881674 20.572824,-11.777568 4.16856,-2.960164 9.962398,-5.871337 13.126764,-8.482217 3.800566,-2.139099 7.621507,-5.184544 10.63699,-6.888148 2.20716,-1.978019 3.991593,-2.717616 5.762633,-4.400471 1.5951,-0.01165 -0.13255,-1.650169 1.99791,-0.592114 z"
       style="opacity:1;fill:#000000;fill-opacity:0.41176471;stroke:#000000;stroke-width:2;stroke-miterlimit:4;stroke-dasharray:none;stroke-dashoffset:0;stroke-opacity:1" />
    <path
       id="path4155"
       d="m 96.65008,61.311714 c 5.16236,-0.645799 12.23996,-0.683039 18.19167,-0.997125 4.62994,-0.254407 13.59228,0.372343 4.69661,0.375485 -7.03542,0.279589 -14.14316,0.444675 -21.034448,0.957985 -0.457367,0.218225 -1.028221,0.206902 -1.853832,-0.336345 z"
       style="opacity:1;fill:#000000;fill-opacity:0.41176471;stroke:#000000;stroke-width:2;stroke-miterlimit:4;stroke-dasharray:none;stroke-dashoffset:0;stroke-opacity:1" />
    <path
       id="path4157"
       d="m 123.30002,63.331778 c -0.96411,1.340076 -5.77863,4.597221 -7.24193,6.111906 -2.55481,2.276037 -5.27018,4.131189 -8.08059,6.444107 -5.39245,3.899954 -9.157551,7.405668 -14.346989,10.849929 -4.22451,3.488255 -10.449331,7.182054 -13.63085,9.838223 -4.423326,2.905892 -10.271192,6.500577 -13.565178,8.905507 -5.318096,2.88003 -9.84164,6.64871 -15.034746,9.08662 -3.382975,2.32031 -10.725104,6.13387 -15.438572,9.30092 -5.622739,1.38581 4.10453,-2.65363 5.386463,-4.35503 4.697438,-2.44025 9.135741,-4.97061 13.478646,-7.90171 5.563573,-3.24432 10.890028,-7.08782 16.554226,-10.22662 4.942675,-3.714989 10.066572,-6.555288 14.421331,-9.95538 5.17625,-3.605426 8.422186,-6.211887 13.697765,-9.906579 3.491924,-2.921891 7.228684,-5.869841 11.069964,-8.610651 3.87802,-2.980582 6.0914,-5.425946 10.05585,-8.026315 0.80193,-0.67335 1.17835,-2.221506 2.67461,-1.554927 z"
       style="opacity:1;fill:#000000;fill-opacity:0.41176471;stroke:#000000;stroke-width:2;stroke-miterlimit:4;stroke-dasharray:none;stroke-dashoffset:0;stroke-opacity:1" />
    <path
       id="path4161"
       d="m 78.747652,75.532437 c 2.146267,2.37753 3.084311,4.157935 4.948606,6.569245 l 1.913377,1.769206 c -2.172585,-2.98114 -4.066758,-3.774017 -6.387683,-6.875618 -0.04318,-0.590481 -3.165955,-2.327334 -0.4743,-1.462833 z"
       style="opacity:1;fill:#000000;fill-opacity:0.41176471;stroke:#000000;stroke-width:2;stroke-miterlimit:4;stroke-dasharray:none;stroke-dashoffset:0;stroke-opacity:1" />

  </g>
</svg>
