<?xml version="1.0" encoding="UTF-8" standalone="no"?>
<!-- Created with Inkscape (http://www.inkscape.org/) -->

<svg
   xmlns:dc="http://purl.org/dc/elements/1.1/"
   xmlns:cc="http://creativecommons.org/ns#"
   xmlns:rdf="http://www.w3.org/1999/02/22-rdf-syntax-ns#"
   xmlns:svg="http://www.w3.org/2000/svg"
   xmlns="http://www.w3.org/2000/svg"
   xmlns:sodipodi="http://sodipodi.sourceforge.net/DTD/sodipodi-0.dtd"
   xmlns:inkscape="http://www.inkscape.org/namespaces/inkscape"
   width="150"
   height="150"
   viewBox="0 0 150 150"
   id="svg2"
   version="1.1"
   inkscape:version="0.91 r13725"
   sodipodi:docname="cao.svg">
  <g
     id="layer1"
     transform="translate(0,-902.36216)">
    <g
       id="g4148">
      <path
         style="fill:none;fill-rule:evenodd;stroke:#ff0000;stroke-width:2;stroke-linecap:butt;stroke-linejoin:miter;stroke-miterlimit:4;stroke-dasharray:12, 12;stroke-dashoffset:0;stroke-opacity:1"
         d="M 2.0203051,979.63118 C 51.854497,978.95774 101.68869,978.28431 151.52288,977.61087"
         id="path4144" />
      <path
         style="fill:none;fill-rule:evenodd;stroke:#ff0000;stroke-width:2;stroke-linecap:butt;stroke-linejoin:miter;stroke-miterlimit:4;stroke-dasharray:8, 8;stroke-dashoffset:0;stroke-opacity:1"
         d="m 76.771593,902.85958 c -0.673435,51.18107 -1.34687,102.36212 -2.020305,153.54322 3.367181,-0.6734 6.734344,-1.3469 10.101525,-2.0203"
         id="path4146" />
    </g>
  </g>
  <g
     id="layerCharacter">
    <path
        style="opacity:1;fill:#000000;fill-opacity:0.41176471;stroke:#000000;stroke-width:1.14757776;stroke-miterlimit:4;stroke-dasharray:none;stroke-dashoffset:0;stroke-opacity:1"
        d="m 51.837349,54.433846 c 1.814863,0.0051 3.619973,-0.09117 5.456954,-0.09279 1.477569,0.0058 3.015872,-0.03286 4.483133,-0.03593 1.80551,0.04296 3.62616,-0.03029 5.440264,0.04403 1.68493,-0.08562 3.459181,0.07048 5.185273,0.0065 2.018382,-0.02312 4.042049,0.100341 6.037458,0.04485 1.744181,0.09436 3.672937,0.07208 5.512839,0.11881 1.740622,0.0737 3.488402,0.03128 5.275868,0.116661 2.140228,0.07899 4.285166,0.137841 6.398797,0.227571 1.724402,0.06306 3.538268,-0.0031 5.235045,0.206434 -1.199807,0.07978 -1.695987,-0.09944 -3.419042,-0.133799 -3.083087,-0.02606 -8.380175,-0.196827 -11.443432,-0.219461 -1.859109,-0.107316 -3.858508,-0.100716 -5.777501,-0.12986 -1.766031,-0.0043 -3.474081,-0.121589 -5.21944,-0.04071 -1.74771,-0.09959 -3.59522,-0.06833 -5.397702,-0.06908 -1.674597,-0.0022 -3.259908,-0.0078 -4.915375,-0.04577 -1.54416,0.03128 -3.10653,0.0176 -4.575298,0.02248 -1.789549,0.06654 -3.581999,0.0075 -5.374181,0.0803 -0.95882,-0.09067 -2.023551,0.259591 -2.90366,-0.100307 z"
        id="path3337"/>
    <path
       style="opacity:1;fill:#000000;fill-opacity:0.41176471;stroke:#000000;stroke-width:1.44562626;stroke-miterlimit:4;stroke-dasharray:none;stroke-dashoffset:0;stroke-opacity:1"
       d="m 75.80574,39.128794 c 0.419055,1.097098 0.313978,1.732209 0.289846,2.830283 0.178275,0.903048 -0.05616,2.75301 -0.147851,3.235886 -0.02617,2.81782 -0.82974,5.345565 -1.118123,8.071158 -0.561149,2.221248 -0.9354,4.573747 -1.529557,6.860087 -0.467801,2.158857 -1.150487,4.227549 -1.740671,6.209562 -0.287051,1.520022 -0.974399,3.082958 -1.49428,4.636718 -0.393267,1.875402 -1.339098,3.627701 -1.880134,5.089833 -0.658051,2.089292 -1.336378,4.277288 -2.650413,6.026375 -0.396764,1.826861 -1.543796,3.099108 -2.247191,4.664016 -1.031718,1.909806 -2.29792,3.62517 -3.483664,5.448842 -1.452165,1.739352 -2.799603,3.586308 -4.408674,5.101369 -1.63912,1.760897 -3.600962,3.286407 -5.41492,4.689297 -0.925631,0.23142 -2.240976,2.0056 -3.49824,1.67152 1.703775,-1.017 3.319252,-1.96399 4.904979,-3.28884 1.472483,-1.293897 2.928196,-2.594567 4.194117,-3.919712 0.992009,-0.7288 2.035425,-2.670068 3.470694,-3.930614 0.993031,-1.630845 2.034769,-2.655202 2.741202,-4.326563 1.165372,-1.624914 2.054131,-3.223856 2.995391,-5.30362 0.698861,-1.371501 1.296935,-2.764918 1.963948,-4.199326 0.835081,-2.339325 2.065942,-4.554033 2.612217,-7.086134 0.629793,-1.820652 1.32629,-3.460307 1.790804,-5.458391 0.684579,-1.908907 1.093255,-3.91007 1.648511,-5.810542 0.4678,-2.165528 1.028498,-4.059322 1.361533,-6.259135 0.51927,-1.721733 0.62682,-3.96661 0.900336,-5.436513 0.412245,-1.561976 0.372566,-3.839454 0.591982,-4.724782 0.07372,-0.711842 0.0041,-2.251233 0.04898,-3.058965 0.124263,-0.35813 -0.720776,-2.443502 0.09918,-1.731809 z"
       id="path3340"/>
    <path
       style="opacity:1;fill:#000000;fill-opacity:0.41176471;stroke:#000000;stroke-width:1.49725819;stroke-miterlimit:4;stroke-dasharray:none;stroke-dashoffset:0;stroke-opacity:1"
       d="m 75.739241,56.284635 c 1.200253,1.104655 1.428669,1.668564 1.861664,3.074626 0.906917,1.429812 1.181557,2.942688 2.000936,4.311382 0.442048,1.581604 0.988321,2.750696 1.519758,4.316347 0.967649,1.304255 0.925124,2.900211 2.000911,4.156333 0.231946,1.649922 1.697695,3.055962 2.008534,4.564631 1.166537,1.849391 1.998421,3.912568 3.321004,5.752864 1.485774,1.996352 2.762335,4.04799 4.546828,5.750579 1.294332,1.641282 2.932963,2.957399 4.525093,4.281707 5.282871,4.02273 11.320021,6.872352 17.579611,8.618726 0.14564,0.32337 -2.65478,-0.71661 -3.59357,-1.03179 -5.1944,-1.825825 -2.99149,0.0723 -7.40575,-3.391373 -1.48126,-1.343233 -10.317579,-6.972546 -11.571943,-8.553519 -1.32563,-1.491352 -2.750005,-3.03054 -3.855302,-4.770991 -0.925279,-1.213721 -1.838129,-2.651312 -2.488851,-4.178648 -0.862609,-1.5514 -1.740717,-3.093828 -2.522835,-4.75277 -0.827736,-1.462473 -1.221141,-3.135679 -2.141802,-4.462737 -0.256588,-1.201274 -1.091969,-2.662665 -1.622519,-4.051986 -0.686341,-1.856931 -1.294888,-3.650217 -2.16916,-5.498062 -0.495959,-1.108506 -1.204791,-2.481988 -1.449822,-3.224096 -0.114137,-0.247032 -1.605428,-1.328126 -0.542785,-0.911223 z"
       id="path3343"/>

  </g>
</svg>
